<svg xmlns="http://www.w3.org/2000/svg" version="1.1" viewBox="-5.0 -10.0 110.0 135.0">
 <path d="m95.707 37.781-8.9883-8.9883c-0.1875-0.1875-0.44141-0.29297-0.70703-0.29297h-27.59c-0.26562 0-0.51953 0.10547-0.70703 0.29297l-4.3711 4.3711-4.3711-4.3711c-0.1875-0.1875-0.44141-0.29297-0.70703-0.29297h-32.266v-5c0-0.55469-0.44922-1-1-1h-10c-0.55078 0-1 0.44531-1 1v4c0 0.55469 0.44922 1 1 1h5v3h-5c-0.55078 0-1 0.44531-1 1v9c0 0.55469 0.44922 1 1 1h5v4h-5c-0.55078 0-1 0.44531-1 1v21c0 0.55469 0.44922 1 1 1h5v7c0 0.55469 0.44922 1 1 1h4c0.55078 0 1-0.44531 1-1v-4h5v4c0 0.55469 0.44922 1 1 1h21c0.55078 0 1-0.44531 1-1v-4h4.2617c0.26562 0 0.51953-0.10547 0.70703-0.29297l4.3711-4.3711 4.3711 4.3711c0.1875 0.1875 0.44141 0.29297 0.70703 0.29297h3.5781v4c0 0.55469 0.44922 1 1 1h12c0.55078 0 1-0.44531 1-1v-4h10.012c0.26563 0 0.51953-0.10547 0.70703-0.29297l8.9883-8.9883c0.1875-0.1875 0.29297-0.44141 0.29297-0.70703v-24.02c0-0.26563-0.10547-0.51953-0.29297-0.70703zm-89.707 2.7188v-7h4v7zm0 27v-19h4v19zm8 8h-2v-34-14c0-0.55469-0.44922-1-1-1h-5v-2h8zm9-3h3.0391v3h-3.0391zm8.5 0v3h-3.4609v-3zm5.4609 0v3h-3.4609v-3zm5.0391 3h-3.0391v-3h3.0391zm22-3h4v3h-4zm10 3h-4v-3h4zm20-13.402-8.4023 8.4023h-26.762l-4.7852-4.7852c-0.39062-0.39062-1.0234-0.39062-1.4141 0l-4.7852 4.7852h-31.848l-0.003906-40h31.848l4.7852 4.7852c0.39063 0.39062 1.0234 0.39062 1.4141 0l4.7852-4.7852h26.762l8.4023 8.4023v23.191z"/>
 <path d="m89.379 48.605c-0.67969-5.7344-4.4023-10.551-9.5078-12.773-0.011719-0.007812-0.023438-0.011719-0.035156-0.015625-4.9727-2.2852-11.555-1.4727-15.797 1.8164-0.074218 0.039063-0.14062 0.09375-0.20312 0.15234-4.3047 3.2148-6.9375 8.875-6.2227 14.539 1.2148 12.004 15.715 18.406 25.355 11.047 0.085938-0.046875 0.16406-0.10547 0.23438-0.17578 4.2852-3.2188 6.8984-8.8633 6.1836-14.512 0-0.027344-0.007813-0.050782-0.011719-0.074219zm-2.0586-0.23828c-4.1055 4.2617-7.5547 3.9961-9.0586 3.5703 0.33594-0.98438 0.30078-2.1484-0.074219-3.1133 1.3242-1.1367 3.8672-4.1992 2.7109-10.188 3.3789 2.1172 5.7891 5.6289 6.418 9.7305zm-13.82 5.1328c-3.957-0.10547-3.9531-5.8984 0-6 3.957 0.10547 3.9531 5.8984 0 6zm5.0625-16.039c1.6367 5.6797-0.30469 8.5352-1.4297 9.625-0.71875-0.76563-1.668-1.3008-2.7422-1.4961-0.32422-1.7227-1.7148-5.4492-7.4805-7.4375 3.3867-1.8906 8.0195-2.1875 11.648-0.69141zm-13.824 2.1367c5.7344 1.4219 7.2344 4.5273 7.6211 6.0469-1.0547 0.24609-1.9688 0.83203-2.6484 1.6328-1.6484-0.57812-5.5781-1.2656-10.188 2.7305 0.14844-4.2031 2.1445-7.9414 5.2148-10.41zm-5.0586 13.035c4.1055-4.2617 7.5547-3.9961 9.0586-3.5703-0.33594 0.98438-0.30078 2.1484 0.074219 3.1133-1.3242 1.1367-3.8672 4.1992-2.7109 10.188-3.3789-2.1172-5.7891-5.6289-6.418-9.7305zm8.7578 10.906c-1.6367-5.6797 0.30469-8.5352 1.4297-9.625 0.71875 0.76563 1.668 1.3008 2.7422 1.4961 0.32422 1.7227 1.7148 5.4492 7.4805 7.4375-3.3867 1.8906-8.0195 2.1875-11.648 0.69141zm13.824-2.1367c-5.7344-1.4219-7.2344-4.5273-7.6211-6.0469 1.0547-0.24609 1.9688-0.83594 2.6523-1.6328 3.4102 0.98828 6.2695 0.47266 10.184-2.7305-0.14844 4.2031-2.1445 7.9414-5.2148 10.41z"/>
 <path d="m52.379 48.605c-0.67969-5.7344-4.4023-10.547-9.5078-12.773-0.011719-0.007812-0.023438-0.011719-0.035156-0.019531-4.9727-2.2852-11.555-1.4727-15.797 1.8164-0.074218 0.039063-0.14062 0.09375-0.20312 0.15234-4.3047 3.2148-6.9375 8.875-6.2227 14.539 1.2148 12.004 15.715 18.406 25.355 11.047 0.085938-0.046876 0.16406-0.10547 0.23438-0.17578 4.2852-3.2188 6.8984-8.8633 6.1836-14.512 0-0.027344-0.007813-0.050782-0.011719-0.074219zm-2.0586-0.23828c-4.1055 4.2617-7.5547 3.9961-9.0586 3.5703 0.33594-0.98438 0.30078-2.1484-0.074219-3.1133 1.3242-1.1367 3.8672-4.1992 2.7109-10.188 3.3789 2.1172 5.7891 5.6289 6.418 9.7305zm-13.82 5.1328c-3.957-0.10547-3.9531-5.8984 0-6 3.957 0.10547 3.9531 5.8984 0 6zm5.0625-16.039c1.6367 5.6797-0.30469 8.5352-1.4297 9.625-0.71875-0.76563-1.668-1.3008-2.7422-1.4961-0.32422-1.7227-1.7148-5.4492-7.4805-7.4375 3.3867-1.8906 8.0195-2.1875 11.648-0.69141zm-13.824 2.1367c5.7344 1.4219 7.2344 4.5273 7.6211 6.0469-1.0547 0.24609-1.9688 0.83203-2.6484 1.6328-1.6484-0.57812-5.5781-1.2656-10.188 2.7305 0.14844-4.2031 2.1445-7.9414 5.2148-10.41zm-5.0586 13.035c4.1055-4.2617 7.5547-3.9961 9.0547-3.5703-0.33594 0.98438-0.30078 2.1484 0.074219 3.1133-1.3242 1.1367-3.8672 4.1992-2.7109 10.188-3.3789-2.1172-5.7891-5.6289-6.418-9.7305zm8.7578 10.906c-1.6367-5.6797 0.30469-8.5352 1.4297-9.625 0.71875 0.76563 1.668 1.3008 2.7422 1.4961 0.32422 1.7227 1.7148 5.4492 7.4805 7.4375-3.3867 1.8906-8.0195 2.1875-11.648 0.69141zm13.824-2.1367c-5.7344-1.4219-7.2344-4.5273-7.6211-6.0469 1.0547-0.24609 1.9688-0.83594 2.6523-1.6328 3.4102 0.98828 6.2695 0.47266 10.184-2.7305-0.14844 4.2031-2.1445 7.9414-5.2148 10.41z"/>
 <path d="m20 35.5c0.26953 0 0.51953-0.10156 0.71094-0.28906 0.089843-0.10156 0.16016-0.21094 0.21094-0.32813 0.11328-0.23828 0.10156-0.51953 0-0.76172-0.050781-0.12891-0.12109-0.23047-0.21094-0.32812-0.10156-0.089844-0.21094-0.16016-0.32813-0.21094-0.23828-0.10938-0.51953-0.10938-0.76172 0-0.12109 0.050781-0.23047 0.12109-0.32812 0.21094-0.089844 0.10156-0.16016 0.19922-0.21094 0.32812-0.28906 0.62891 0.22656 1.4062 0.92188 1.3789z"/>
 <path d="m20.711 65.789c-0.10156-0.089843-0.19922-0.16016-0.32813-0.21094-0.37109-0.16016-0.80859-0.0625-1.0898 0.21094-0.37109 0.38672-0.39453 1.043 0 1.4219 0.39062 0.37891 1.0273 0.37891 1.4219 0 0.27734-0.27734 0.37891-0.72656 0.21094-1.0898-0.050781-0.12109-0.12109-0.23047-0.21094-0.32812z"/>
<text x="0.0" y="117.5" font-size="5.0" font-weight="bold" font-family="Arbeit Regular, Helvetica, Arial-Unicode, Arial, Sans-serif" fill="#000000">Created by Fahrul Oktaviana</text><text x="0.0" y="122.5" font-size="5.0" font-weight="bold" font-family="Arbeit Regular, Helvetica, Arial-Unicode, Arial, Sans-serif" fill="#000000">from Noun Project</text></svg>